<svg width="12" height="12" viewBox="0 0 12 12" fill="none" xmlns="http://www.w3.org/2000/svg">
<path d="M6.2066 8.94078L8.57098 10.4385C8.87323 10.6298 9.24823 10.3452 9.1586 9.99228L8.47572 7.30541C8.45644 7.23057 8.45866 7.1518 8.48214 7.07816C8.50563 7.00453 8.54942 6.93902 8.60847 6.88916L10.7287 5.12478C11.007 4.89303 10.8637 4.43066 10.5056 4.40741L7.73697 4.22741C7.66243 4.22212 7.59093 4.19577 7.53078 4.15142C7.47063 4.10707 7.42431 4.04656 7.39722 3.97691L6.36448 1.37666C6.33635 1.30276 6.28644 1.23916 6.22134 1.19428C6.15624 1.1494 6.07904 1.12537 5.99998 1.12537C5.92091 1.12537 5.84371 1.1494 5.77861 1.19428C5.71351 1.23916 5.6636 1.30276 5.63548 1.37666L4.60273 3.97691C4.57569 4.04663 4.5294 4.10722 4.46925 4.15164C4.4091 4.19606 4.33756 4.22246 4.26298 4.22778L1.49435 4.40778C1.1366 4.43066 0.992601 4.89303 1.27123 5.12478L3.39148 6.88953C3.45047 6.93936 3.49421 7.00481 3.51769 7.07837C3.54118 7.15193 3.54344 7.23062 3.52423 7.30541L2.89123 9.79728C2.7836 10.2207 3.23398 10.5623 3.59623 10.3324L5.79373 8.94078C5.85549 8.90152 5.92716 8.88066 6.00035 8.88066C6.07354 8.88066 6.14521 8.90152 6.20697 8.94078H6.2066Z" fill="#CCCCCC"/>
</svg>
